<svg xmlns="http://www.w3.org/2000/svg"  viewBox="0 0 35 40">
  <path id="view-events-icon" d="M13.75-30a3.616,3.616,0,0,1,2.656,1.094A3.616,3.616,0,0,1,17.5-26.25V1.25a3.616,3.616,0,0,1-1.094,2.656A3.616,3.616,0,0,1,13.75,5h-27.5a3.616,3.616,0,0,1-2.656-1.094A3.616,3.616,0,0,1-17.5,1.25v-27.5a3.616,3.616,0,0,1,1.094-2.656A3.616,3.616,0,0,1-13.75-30H-10v-4.062A.829.829,0,0,1-9.062-35h.625a.829.829,0,0,1,.938.938V-30h15v-4.062A.829.829,0,0,1,8.438-35h.625a.829.829,0,0,1,.938.938V-30Zm-27.5,2.5a1.217,1.217,0,0,0-.9.352,1.217,1.217,0,0,0-.352.9v3.75H15v-3.75a1.217,1.217,0,0,0-.352-.9,1.217,1.217,0,0,0-.9-.352Zm27.5,30A1.2,1.2,0,0,0,15,1.25V-20H-15V1.25a1.217,1.217,0,0,0,.352.9,1.217,1.217,0,0,0,.9.352ZM-5.937-10H-9.062A.829.829,0,0,1-10-10.937v-3.125A.829.829,0,0,1-9.062-15h3.125A.829.829,0,0,1-5-14.062v3.125A.829.829,0,0,1-5.937-10Zm7.5,0H-1.562a.829.829,0,0,1-.937-.937v-3.125A.829.829,0,0,1-1.562-15H1.563a.829.829,0,0,1,.938.938v3.125A.829.829,0,0,1,1.563-10Zm7.5,0H5.938A.829.829,0,0,1,5-10.937v-3.125A.829.829,0,0,1,5.938-15H9.063a.829.829,0,0,1,.938.938v3.125A.829.829,0,0,1,9.063-10Zm-7.5,7.5H-1.562A.829.829,0,0,1-2.5-3.437V-6.562A.829.829,0,0,1-1.562-7.5H1.563a.829.829,0,0,1,.938.938v3.125A.829.829,0,0,1,1.563-2.5Zm-7.5,0H-9.062A.829.829,0,0,1-10-3.437V-6.562A.829.829,0,0,1-9.062-7.5h3.125A.829.829,0,0,1-5-6.562v3.125A.829.829,0,0,1-5.937-2.5Zm15,0H5.938A.829.829,0,0,1,5-3.437V-6.562A.829.829,0,0,1,5.938-7.5H9.063A.829.829,0,0,1,10-6.562v3.125A.829.829,0,0,1,9.063-2.5Z" transform="translate(17.5 35)" fill="#7045df"/>
</svg>
