<?xml version="1.0" encoding="utf-8"?>
<!-- Generator: Adobe Illustrator 25.1.0, SVG Export Plug-In . SVG Version: 6.00 Build 0)  -->
<svg version="1.1" id="Layer_1" xmlns="http://www.w3.org/2000/svg" xmlns:xlink="http://www.w3.org/1999/xlink" x="0px" y="0px"
	 viewBox="0 0 32 32" style="enable-background:new 0 0 32 32;" xml:space="preserve">
<style type="text/css">
	.st0{fill:#EE0D61;}
	.st1{fill:#FFFFFF;}
</style>
<g>
	<path class="st0" d="M29,32H3c-1.66,0-3-1.34-3-3V3c0-1.66,1.34-3,3-3h26c1.66,0,3,1.34,3,3v26C32,30.66,30.66,32,29,32z"/>
	<g>
		<polygon points="16,2.13 20.51,11.26 30.61,12.73 23.3,19.83 25.03,29.87 16,25.13 6.97,29.87 8.7,19.83 1.39,12.73 11.49,11.26 
					"/>
		<g>
			<path class="st1" d="M14.55,20.15c-0.43,0-0.78-0.13-1.05-0.39c-0.27-0.26-0.4-0.6-0.4-1.01s0.13-0.75,0.4-1.01
				c0.27-0.26,0.62-0.39,1.05-0.39c0.43,0,0.78,0.13,1.05,0.39c0.27,0.26,0.4,0.6,0.4,1.01s-0.13,0.75-0.4,1.01
				C15.33,20.02,14.98,20.15,14.55,20.15z M14.55,19.6c0.24,0,0.44-0.08,0.59-0.24s0.24-0.37,0.24-0.62c0-0.26-0.08-0.46-0.24-0.62
				c-0.16-0.16-0.36-0.24-0.59-0.24c-0.24,0-0.43,0.08-0.59,0.24c-0.16,0.16-0.24,0.37-0.24,0.62c0,0.26,0.08,0.46,0.24,0.62
				C14.11,19.52,14.31,19.6,14.55,19.6z"/>
			<path class="st1" d="M16.23,20.06v-2.64h0.73l1.23,1.77h0.06v-1.77h0.61v2.64h-0.71l-1.24-1.77h-0.06v1.77H16.23z"/>
			<path class="st1" d="M14.6,20.6l-1.09,1.79v0.85h-0.63v-0.85l-1.09-1.79h0.67l0.7,1.18h0.07l0.7-1.18H14.6z"/>
			<path class="st1" d="M15.87,23.33c-0.43,0-0.78-0.13-1.05-0.39c-0.27-0.26-0.4-0.6-0.4-1.01c0-0.41,0.13-0.75,0.4-1.01
				c0.27-0.26,0.62-0.39,1.05-0.39c0.43,0,0.78,0.13,1.05,0.39c0.27,0.26,0.4,0.6,0.4,1.01c0,0.41-0.13,0.75-0.4,1.01
				C16.65,23.2,16.3,23.33,15.87,23.33z M15.87,22.78c0.24,0,0.44-0.08,0.59-0.24c0.16-0.16,0.24-0.37,0.24-0.62
				c0-0.26-0.08-0.46-0.24-0.62c-0.16-0.16-0.36-0.24-0.59-0.24c-0.24,0-0.43,0.08-0.59,0.24c-0.16,0.16-0.24,0.37-0.24,0.62
				c0,0.26,0.08,0.46,0.24,0.62C15.43,22.7,15.63,22.78,15.87,22.78z"/>
			<path class="st1" d="M19.77,23.03c-0.22,0.2-0.53,0.3-0.95,0.3c-0.41,0-0.73-0.1-0.95-0.3c-0.22-0.2-0.33-0.49-0.33-0.89V20.6
				h0.63v1.52c0,0.21,0.05,0.38,0.16,0.5c0.11,0.12,0.27,0.18,0.48,0.18c0.21,0,0.37-0.06,0.48-0.18c0.11-0.12,0.16-0.28,0.16-0.5
				V20.6h0.63v1.54C20.1,22.54,19.99,22.83,19.77,23.03z"/>
		</g>
		<path class="st1" d="M28.47,14.05L28.47,14.05c-0.01-0.07-0.06-0.14-0.12-0.18c-0.06-0.04-0.13-0.06-0.21-0.04
			c-0.07,0.01-0.13,0.05-0.18,0.11c-0.53,0.71-1.02,1.19-1.48,1.4c-0.47,0.21-0.76,0.3-0.92,0.28c-0.14,0.01-0.26,0-0.33-0.03
			c-0.05-0.02-0.11-0.04-0.13-0.06c-0.1-0.12-0.11-0.35-0.03-0.67c0.03,0,0.07-0.01,0.1-0.03c0.03-0.02,0.06-0.04,0.11-0.05l0.01,0
			l0.03-0.01c0.27-0.12,0.55-0.26,0.88-0.45c0.33-0.18,0.62-0.4,0.87-0.67c0.23-0.27,0.3-0.57,0.19-0.89
			c-0.07-0.17-0.2-0.27-0.37-0.31c-0.17-0.04-0.34-0.03-0.52,0.03c-0.17,0.06-0.32,0.14-0.45,0.23c-0.11,0.09-0.22,0.18-0.29,0.25
			c-0.51,0.5-0.86,1.04-1.05,1.61c-0.07,0.21-0.1,0.39-0.11,0.56c-0.02,0.01-0.04,0.03-0.07,0.05c-0.22,0.17-0.38,0.26-0.48,0.28
			c-0.02-0.15,0.01-0.35,0.07-0.58c0.08-0.26,0.17-0.54,0.27-0.8c0.12-0.35,0.22-0.66,0.28-0.93c0.04-0.15,0.05-0.31,0.02-0.47
			c-0.02-0.1-0.06-0.17-0.1-0.21c-0.04-0.06-0.1-0.09-0.14-0.11c-0.15-0.07-0.33-0.06-0.53,0.04c-0.42,0.22-0.8,0.45-1.14,0.72
			c-0.38,0.28-0.73,0.57-1.12,0.9c-0.42,0.37-0.87,0.72-1.33,1.06c0,0,0,0,0,0c0-0.02,0.01-0.05,0.01-0.09
			c0.06-0.23,0.13-0.51,0.24-0.79c0.12-0.29,0.21-0.62,0.27-0.87c0.03-0.14,0.03-0.27,0-0.41c-0.03-0.12-0.11-0.21-0.23-0.28
			c-0.13-0.06-0.28-0.06-0.42,0c-0.36,0.15-0.7,0.38-1.03,0.69c-0.2,0.19-0.41,0.39-0.62,0.62c0.2-0.32,0.41-0.62,0.58-0.86
			c0.04-0.07,0.06-0.14,0.05-0.21c-0.02-0.06-0.05-0.13-0.12-0.18c-0.06-0.04-0.13-0.06-0.21-0.04c-0.08,0.01-0.14,0.05-0.18,0.11
			c-0.34,0.48-0.63,0.93-0.89,1.35c-0.25,0.27-0.49,0.53-0.73,0.79c-0.2,0.22-0.4,0.43-0.6,0.65c0.26-0.87,0.47-1.67,0.64-2.44
			c0.01-0.07,0-0.13-0.03-0.18c-0.03-0.06-0.07-0.1-0.13-0.13c-0.15-0.25-0.38-0.41-0.67-0.47c-0.29-0.05-0.6,0.01-0.97,0.17
			c-0.81,0.41-1.37,1.04-1.69,1.86c-1.12-0.07-2.24-0.11-3.33-0.11c0.48-1.04,0.9-2.01,1.29-2.96c0.23-0.55,0.44-1.08,0.63-1.63
			c0.2-0.55,0.37-1.15,0.53-1.82c0.08-0.31,0.14-0.66,0.18-1.06c0.05-0.4,0.04-0.82-0.03-1.23c-0.07-0.52-0.26-0.92-0.55-1.19
			c-0.37-0.35-0.86-0.5-1.45-0.46c-0.25,0.03-0.48,0.08-0.71,0.16C9.86,4.13,9.65,4.21,9.45,4.31C7.06,5.4,5,6.97,3.33,8.98
			c-0.2,0.23-0.37,0.48-0.51,0.73c-0.15,0.27-0.24,0.57-0.26,0.87l0,0.01c0,0.13,0.05,0.21,0.1,0.25c0.06,0.06,0.13,0.1,0.22,0.11
			l0.02,0c0.13,0,0.21-0.05,0.25-0.1c0.06-0.06,0.1-0.13,0.11-0.23c0.02-0.21,0.08-0.42,0.19-0.61c0.11-0.19,0.25-0.39,0.42-0.6
			C5.47,7.5,7.45,5.99,9.74,4.94c0.16-0.08,0.34-0.15,0.52-0.22c0.22-0.07,0.4-0.11,0.57-0.13c0.38-0.03,0.69,0.06,0.91,0.27
			c0.17,0.16,0.29,0.43,0.34,0.8c0.06,0.37,0.06,0.72,0.02,1.07c-0.04,0.33-0.09,0.65-0.16,0.96c-0.15,0.62-0.32,1.21-0.52,1.75
			c-0.21,0.59-0.41,1.12-0.61,1.6c-0.45,1.08-0.92,2.16-1.42,3.22c-1.92,0.02-3.86,0.14-5.76,0.36c-0.09,0.01-0.17,0.05-0.22,0.12
			c-0.08,0.09-0.08,0.2-0.08,0.24l0,0.02c0.01,0.08,0.04,0.15,0.11,0.22l0.03,0.02c0.05,0.03,0.12,0.07,0.22,0.07l0.04,0
			c1.71-0.2,3.51-0.32,5.34-0.36c-0.29,0.61-0.58,1.23-0.87,1.84l-3.94,8.24c-0.03,0.08-0.04,0.16-0.01,0.25l0.01,0.02
			c0.04,0.08,0.09,0.14,0.16,0.18l0.01,0c0.06,0.03,0.12,0.03,0.15,0.03c0.13,0,0.24-0.07,0.31-0.18l3.94-8.26
			c0.37-0.76,0.7-1.46,1.02-2.14c1.22,0,2.37,0.03,3.5,0.1c-0.01,0.29,0.07,0.53,0.25,0.71c0.23,0.22,0.54,0.29,0.91,0.2
			c0.28-0.1,0.5-0.23,0.68-0.39c0.31-0.27,0.57-0.53,0.79-0.79c-0.07,0.24-0.13,0.47-0.2,0.67c-0.07,0.27,0.02,0.49,0.25,0.62
			c0.09,0.05,0.18,0.08,0.27,0.08c0.14,0,0.27-0.06,0.4-0.18c0.04-0.04,0.08-0.08,0.12-0.13c-0.01,0.06-0.01,0.11,0.01,0.16
			c0.03,0.06,0.06,0.11,0.13,0.14c0.04,0.02,0.08,0.04,0.13,0.04c0.08,0,0.15-0.03,0.22-0.1l0.93-1.09
			c0.34-0.41,0.67-0.77,0.99-1.09c0.3-0.31,0.61-0.55,0.93-0.71l0,0.01c-0.05,0.25-0.13,0.51-0.24,0.79
			c-0.12,0.33-0.2,0.61-0.26,0.87c-0.04,0.13-0.04,0.27-0.02,0.47c0.03,0.11,0.08,0.19,0.13,0.23c0.05,0.05,0.1,0.08,0.14,0.09
			c0.17,0.07,0.37,0.03,0.61-0.14c0.43-0.33,0.9-0.69,1.36-1.09c0.36-0.3,0.73-0.59,1.07-0.86c0.38-0.28,0.72-0.5,1.05-0.66
			c0,0.03-0.01,0.07-0.02,0.11c-0.06,0.27-0.16,0.57-0.27,0.86c-0.12,0.34-0.23,0.68-0.32,1.02c-0.08,0.34-0.07,0.62,0.01,0.85
			c0.07,0.14,0.19,0.23,0.36,0.27l0,0c0.23,0.02,0.5-0.08,0.81-0.29c0.03,0.06,0.07,0.11,0.11,0.16c0.17,0.18,0.43,0.27,0.79,0.27
			h0.12c0.12,0,0.33-0.04,0.64-0.13c0.28-0.08,0.61-0.26,1.02-0.55c0.38-0.27,0.76-0.67,1.18-1.24
			C28.46,14.21,28.48,14.13,28.47,14.05z M26.71,13.19c-0.03,0.06-0.12,0.18-0.39,0.39c-0.2,0.15-0.5,0.32-0.9,0.52
			c0.15-0.25,0.34-0.49,0.59-0.74c0.18-0.17,0.36-0.29,0.53-0.34c0.06-0.02,0.11-0.03,0.16-0.03c0.03,0,0.04,0,0.05,0
			C26.76,13.04,26.75,13.11,26.71,13.19z M14.14,15.44c-0.06-0.01-0.11-0.03-0.16-0.07c-0.06-0.08-0.09-0.17-0.08-0.27
			c0-0.02,0-0.03,0-0.05l0.01,0c0.11-0.08,0.17-0.17,0.18-0.28c0.01-0.08-0.01-0.16-0.06-0.24c0.27-0.68,0.72-1.18,1.4-1.51
			c0.18-0.1,0.35-0.14,0.51-0.14c0.02,0,0.04,0,0.06,0c0.02,0,0.04,0,0.06,0c0.07,0.02,0.14,0.05,0.2,0.1
			c0.06,0.05,0.09,0.1,0.1,0.17c-0.34,0.76-0.86,1.43-1.53,1.99c-0.13,0.12-0.29,0.22-0.48,0.29
			C14.29,15.44,14.23,15.45,14.14,15.44z"/>
		<rect x="11.81" y="18.5" class="st1" width="0.91" height="0.44"/>
		<rect x="19.17" y="18.5" class="st1" width="0.91" height="0.44"/>
	</g>
</g>
</svg>
